<svg xmlns="http://www.w3.org/2000/svg" viewBox="0 0 400 400">
 <defs><radialGradient id="d" cx="35%" cy="25%"><stop offset="0" stop-color="#fff"/><stop offset=".35" stop-color="#F8DBE6"/><stop offset=".7" stop-color="#DCA3C6"/><stop offset="1" stop-color="#8E6AA8"/></radialGradient></defs>
 <circle cx="200" cy="200" r="172" fill="url(#d)"/>
 <g fill="none" stroke="#fff" stroke-width="4" opacity=".62">
  <path d="M70 104c90 28 172 28 260 0M40 170c112 30 212 30 320 0M34 235c116 34 220 34 332 0M70 296c90 28 172 28 260 0"/>
  <path d="M105 62c-45 92-45 184 0 276M160 34c-28 114-28 218 0 332M220 31c27 116 27 224 0 338M286 60c48 96 48 188 0 280"/>
 </g>
 <g fill="#fff" opacity=".72"><rect x="126" y="96" width="30" height="30" transform="rotate(14 141 111)"/><rect x="206" y="126" width="35" height="35" transform="rotate(-12 223 143)"/><rect x="251" y="220" width="27" height="27" transform="rotate(9 264 233)"/><rect x="110" y="222" width="24" height="24" transform="rotate(-18 122 234)"/></g>
</svg>
